<?xml version="1.0" encoding="utf-8"?>
<!-- Generator: Adobe Illustrator 27.4.0, SVG Export Plug-In . SVG Version: 6.00 Build 0)  -->
<svg version="1.1" id="_레이어_2" xmlns="http://www.w3.org/2000/svg" xmlns:xlink="http://www.w3.org/1999/xlink" x="0px"
	 y="0px" viewBox="0 0 315.2 73.8" style="enable-background:new 0 0 315.2 73.8;" xml:space="preserve" width="current" height="current">
<style type="text/css">
	.st0{fill:url(#SVGID_1_);}
	.st1{fill:url(#SVGID_00000183238649465856355250000007333640500216456882_);}
	.st2{fill:url(#SVGID_00000105421712743474466270000001744668253241117374_);}
	.st3{fill:url(#SVGID_00000019676470021307943790000014920357201740403341_);}
	.st4{fill:url(#SVGID_00000029039984194885330930000011029012828819674270_);}
</style>
<g>
	<rect x="224.9" y="14" width="11.9" height="1"/>
	<rect x="216.5" y="28.1" width="19.6" height="1.5"/>
	<polygon points="106.9,40.3 106.9,15 110.3,15 110.3,14 99.2,14 99.2,15 102.8,15 102.8,40.3 99.2,40.3 99.2,41.3 110.3,41.3 
		110.3,40.3 	"/>
	<path d="M160.5,13.9h-20.9l-0.2,7.8h0.9c0.8-4.5,1.4-6.8,5.9-6.8h1.8v25.3h-3.5v1h11.1v-1h-3.5V15h1.9c4.5,0,5.1,2.3,5.9,6.8h0.9
		L160.5,13.9L160.5,13.9z"/>
	<polygon points="137.2,15 137.2,14 129.6,14 129.6,15 132.8,15 132.8,33.5 121.3,14 113.2,14 113.2,15 116.4,15 116.4,40.3 
		113.2,40.3 113.2,41.3 120.8,41.3 120.8,40.3 117.6,40.3 117.6,16.3 132.8,42.1 134,42.1 134,15 	"/>
	<path d="M183.9,40.3v-6.7h-1c0,0,0.8,5.3-4.2,6.7h-8.5V28l1.9,0c3.1,0,3.4,0.8,4,4.6h0.8V22.3h-0.9c-0.4,2.9-0.8,4.3-4,4.3l-1.9,0
		V15h6.2l-0.4,0c6.5,0,6.3,5.6,6.3,5.6h1V15h0.1v-1h-20.5v1h3.4v25.3h-3.4v1h21.2L183.9,40.3L183.9,40.3L183.9,40.3z"/>
	<path d="M268.1,40.9v-7.3h-1c0,0,0.6,6.4-5.6,6.8h-6.4V15h3.8v-1h-11.1v1h3.2v25.3h-3.2v1h20.3L268.1,40.9L268.1,40.9L268.1,40.9z"
		/>
	<g>
		<polygon points="195.1,40.3 195.1,15 198.2,15 198.2,14 187.9,14 187.9,15.1 191.1,15.1 191.1,40.3 187.9,40.3 187.9,41.3 
			198.3,41.3 198.3,40.3 		"/>
		<polygon points="212.9,40.3 211.1,40.3 198.9,25.3 208.2,15 211.1,15 211.1,14 202.8,14 202.8,15 206.3,15 195.2,27 205.8,40.3 
			202.5,40.3 202.5,41.3 212.9,41.3 		"/>
	</g>
	<g>
		<polygon points="232.2,40.3 232.2,29.4 228.1,29.4 228.1,40.3 224.6,40.3 224.6,41.3 235.6,41.3 235.6,40.3 		"/>
		<rect x="228.1" y="14.9" width="4.1" height="11.2"/>
		<path d="M244.6,17.4c-1.9-3.6-8.1-3.3-8.1-3.3l0.1,1c5.3,1,4.7,4,4.7,7c0,5.4-5.4,6.1-5.4,6.1v1.4c3.6,0,6-1.2,7.8-2.8
			C245.2,25.3,246.5,20.8,244.6,17.4L244.6,17.4z"/>
	</g>
	<path d="M291.2,34.4V15h3.2v-1H287v1h3.1v19.5c-0.3,2.8-1.7,4.1-1.7,4.1c-1.7,2.2-5.8,1.8-5.8,1.8c-4.7-0.3-4.9-4.9-4.9-4.9V15h3.3
		v-1h-10.6v1h3.2v20.6h0c0.3,3.4,2.9,5,4.9,5.9c2.1,0.9,5.6,1,8.6-0.3c3.4-1.4,4-5.5,4.1-6.5l0,0C291.2,34.5,291.2,34.4,291.2,34.4
		L291.2,34.4L291.2,34.4z"/>
	<path d="M315.2,32.2c-0.1-2.8-1.7-6.7-7.9-7.8c-11.1-1.9-6.9-7.5-6.9-7.5s3.3-4.4,8.7-1.6c2.1,1.1,3.1,4.5,3.3,5.3l0.8,0v-6.5h-0.6
		l-1.5,1.2c0,0-3.8-2.8-7.2-1.8s-6,3.5-6.1,7.3c0,0-0.4,4.8,4.1,6.8c4.8,2.1,11.3,2.2,11.2,7c-0.1,4.6-3.5,6.3-5.5,6.4
		c-2,0.1-7.3-0.2-8.8-6.7h-1.1v7h0.7l1.7-1.8c0,0,2,3,8.4,2.1C314.5,40.8,315.2,35,315.2,32.2L315.2,32.2z"/>
	<path d="M102.1,47h1v9.8h-1V47z"/>
	<path d="M111,52.3v4.5h-0.9v-4.4c0-0.5-0.1-0.9-0.4-1.2c-0.3-0.3-0.6-0.5-1.1-0.5c-0.6,0-1.1,0.3-1.5,0.8s-0.6,1.1-0.6,1.8v3.4
		h-0.8v-6.7h0.8l0.1,1.2c0.2-0.4,0.4-0.7,0.7-0.8c0.4-0.4,0.9-0.5,1.6-0.5c0.7,0,1.3,0.2,1.7,0.6C110.8,51.1,111,51.6,111,52.3
		L111,52.3z"/>
	<path d="M113.6,48.2h0.8v2h1.8v0.8h-1.8v4.2c0,0.3,0.1,0.6,0.2,0.7c0.1,0.2,0.3,0.2,0.7,0.2c0.2,0,0.4,0,0.5-0.1
		c0.1,0,0.3-0.1,0.4-0.1v0.8c-0.2,0-0.3,0.1-0.5,0.1c-0.2,0-0.3,0-0.6,0c-0.5,0-0.9-0.1-1.2-0.3c-0.3-0.2-0.5-0.6-0.5-1.1v-4.5h-1.2
		v-0.8h1.2L113.6,48.2L113.6,48.2z"/>
	<path d="M119.4,51.2c0.4-0.3,0.8-0.5,1.3-0.5c0.5,0,0.9,0.1,1.2,0.4s0.6,0.7,0.7,1.2h-4C118.8,51.9,119.1,51.5,119.4,51.2
		L119.4,51.2z M123.6,52.3c-0.1-0.4-0.2-0.7-0.5-1.1c-0.2-0.3-0.5-0.6-0.9-0.8c-0.4-0.2-0.9-0.4-1.4-0.4c-0.9,0-1.7,0.3-2.3,1
		s-0.9,1.5-0.9,2.5c0,1,0.3,1.9,1,2.6c0.6,0.6,1.4,0.9,2.3,0.9c0.4,0,0.8-0.1,1.2-0.2c0.4-0.2,0.9-0.4,1.4-0.8v-1.1
		c-0.4,0.4-0.7,0.7-1,0.8c-0.5,0.3-1.1,0.5-1.6,0.5c-0.7,0-1.3-0.2-1.8-0.8c-0.4-0.5-0.7-1.2-0.7-2.2h5.1
		C123.7,52.9,123.6,52.5,123.6,52.3L123.6,52.3z"/>
	<path d="M129.4,55.3c-0.4,0.5-0.9,0.7-1.5,0.7s-1.1-0.2-1.4-0.7c-0.3-0.5-0.5-1.1-0.5-1.8c0-0.8,0.2-1.5,0.6-2
		c0.4-0.4,0.9-0.7,1.5-0.7c0.4,0,0.7,0.1,1.1,0.3c0.3,0.1,0.6,0.4,0.9,0.7v1.8C130,54.2,129.8,54.8,129.4,55.3L129.4,55.3z
		 M129.2,50.3c-0.4-0.2-0.9-0.3-1.3-0.3c-0.9,0-1.7,0.4-2.2,1.2c-0.5,0.7-0.7,1.4-0.7,2.3c0,0.9,0.3,1.7,0.8,2.3c0.5,0.7,1.2,1,2,1
		c0.4,0,0.7-0.1,1-0.2c0.5-0.2,0.9-0.6,1.2-1.1v1.2c0,0.7-0.2,1.3-0.7,1.7c-0.4,0.3-0.9,0.5-1.6,0.5c-0.3,0-0.6-0.1-0.9-0.2
		c-0.5-0.2-1-0.5-1.6-1v1.1c0.4,0.3,0.9,0.6,1.2,0.7c0.4,0.2,0.8,0.2,1.2,0.2c0.7,0,1.4-0.2,1.9-0.5c0.8-0.5,1.2-1.4,1.2-2.6v-6.4
		h-0.7l-0.2,0.7C129.7,50.6,129.5,50.4,129.2,50.3L129.2,50.3z"/>
	<path d="M136.7,50.2V51c-0.1,0-0.2-0.1-0.3-0.1s-0.2,0-0.4,0c-0.6,0-1.1,0.3-1.5,0.9c-0.3,0.5-0.5,1.1-0.5,1.8v3.2h-0.9v-6.7h0.9
		l0.1,1.2c0.2-0.3,0.4-0.6,0.6-0.8c0.4-0.3,0.8-0.5,1.4-0.5c0.2,0,0.4,0,0.5,0C136.5,50.1,136.5,50.1,136.7,50.2L136.7,50.2z"/>
	<path d="M142.6,55.4c-0.4,0.5-0.9,0.7-1.5,0.7c-0.4,0-0.8-0.1-1-0.3s-0.4-0.5-0.4-0.8c0-0.5,0.3-0.8,0.9-1.1
		c0.4-0.2,1.2-0.3,2.2-0.5l0.4,0v0.4C143.2,54.4,143,55,142.6,55.4L142.6,55.4z M143.5,50.8c-0.4-0.5-1.1-0.8-1.9-0.8
		c-0.4,0-0.8,0.1-1.2,0.2s-0.8,0.3-1.1,0.5v1c0.4-0.3,0.6-0.5,0.9-0.6c0.4-0.2,0.9-0.3,1.3-0.3c0.6,0,1,0.2,1.3,0.5
		c0.3,0.3,0.5,0.8,0.5,1.3l-0.6,0.1c-1.3,0.2-2.2,0.4-2.8,0.6c-0.8,0.4-1.1,0.9-1.1,1.6c0,0.6,0.2,1.1,0.7,1.4
		c0.4,0.4,1,0.5,1.6,0.5c0.6,0,1.1-0.2,1.5-0.5c0.2-0.2,0.4-0.5,0.7-0.8c0,0.5,0.1,0.8,0.1,0.9c0.1,0.2,0.4,0.3,0.8,0.3
		c0.1,0,0.2,0,0.4,0c0.2,0,0.3,0,0.4-0.1V56c-0.2,0.1-0.3,0.1-0.4,0.1c-0.2,0-0.3,0-0.3-0.2c-0.1-0.1-0.1-0.2-0.1-0.4v-3.1
		C144.1,51.8,143.9,51.2,143.5,50.8L143.5,50.8z"/>
	<path d="M146.9,48.2h0.8v2h1.8v0.8h-1.8v4.2c0,0.3,0.1,0.6,0.2,0.7c0.1,0.2,0.4,0.2,0.7,0.2c0.2,0,0.4,0,0.5-0.1
		c0.1,0,0.3-0.1,0.4-0.1v0.8c-0.2,0-0.3,0.1-0.5,0.1c-0.1,0-0.3,0-0.6,0c-0.5,0-0.9-0.1-1.2-0.3c-0.3-0.2-0.5-0.6-0.5-1.1v-4.5h-1.1
		v-0.8h1.1L146.9,48.2L146.9,48.2z"/>
	<path d="M152.7,51.2c0.4-0.3,0.8-0.5,1.3-0.5c0.5,0,0.9,0.1,1.2,0.4c0.3,0.3,0.6,0.7,0.6,1.2h-4C152.1,51.9,152.4,51.5,152.7,51.2
		L152.7,51.2z M156.9,52.3c-0.1-0.4-0.2-0.7-0.5-1.1c-0.2-0.3-0.5-0.6-0.9-0.8c-0.4-0.3-0.9-0.4-1.4-0.4c-0.9,0-1.7,0.3-2.3,1
		c-0.6,0.7-0.9,1.5-0.9,2.5c0,1,0.3,1.9,1,2.6c0.6,0.6,1.4,0.9,2.3,0.9c0.4,0,0.8-0.1,1.2-0.2c0.4-0.2,0.9-0.4,1.4-0.8v-1.1
		c-0.4,0.4-0.7,0.7-1,0.8c-0.5,0.3-1.1,0.5-1.6,0.5c-0.7,0-1.3-0.2-1.8-0.8s-0.7-1.2-0.7-2.2h5.1C157,52.8,157,52.5,156.9,52.3
		L156.9,52.3z"/>
	<path d="M162.5,55.4c-0.4,0.5-0.9,0.7-1.4,0.7s-1-0.2-1.3-0.7c-0.3-0.5-0.5-1.1-0.5-1.9s0.1-1.4,0.4-1.9c0.4-0.6,0.9-0.9,1.5-0.9
		c0.4,0,0.7,0.1,1.1,0.3c0.2,0.1,0.5,0.3,0.8,0.6v1.9C163.1,54.3,162.9,54.9,162.5,55.4L162.5,55.4z M163.1,50.7
		c-0.4-0.2-0.7-0.4-0.9-0.5c-0.3-0.1-0.7-0.2-1.1-0.2c-0.9,0-1.6,0.4-2.1,1.1c-0.5,0.7-0.8,1.5-0.8,2.5s0.2,1.8,0.7,2.4
		c0.5,0.7,1.2,1,2,1c0.4,0,0.8-0.1,1.2-0.3s0.7-0.5,1-1l0.1,1.1h0.9V47h-1C163.1,47,163.1,50.7,163.1,50.7z"/>
	<path d="M174,56.8V47h1.3l2.6,7.9l2.5-7.8h1.3v9.8h-0.9v-8.6l-2.8,8.6h-0.4l-2.8-8.5v8.5H174L174,56.8z"/>
	<path d="M185.9,51.2c0.4-0.3,0.8-0.5,1.3-0.5c0.5,0,0.9,0.1,1.2,0.4c0.3,0.3,0.6,0.7,0.6,1.3h-4C185.3,51.9,185.6,51.5,185.9,51.2
		L185.9,51.2z M190.1,52.3c-0.1-0.4-0.2-0.7-0.5-1.1c-0.2-0.3-0.5-0.6-0.9-0.8c-0.4-0.2-0.9-0.4-1.4-0.4c-0.9,0-1.7,0.3-2.3,1
		c-0.6,0.7-0.9,1.5-0.9,2.5c0,1,0.3,1.9,1,2.6c0.6,0.6,1.4,0.9,2.3,0.9c0.4,0,0.8-0.1,1.2-0.2c0.4-0.2,0.9-0.4,1.4-0.8v-1.1
		c-0.4,0.4-0.7,0.7-1,0.8c-0.5,0.3-1.1,0.5-1.6,0.5c-0.7,0-1.3-0.2-1.8-0.8c-0.4-0.5-0.7-1.2-0.7-2.2h5.1
		C190.2,52.8,190.1,52.5,190.1,52.3L190.1,52.3z"/>
	<path d="M195.5,55.4c-0.4,0.5-0.9,0.7-1.5,0.7c-0.4,0-0.8-0.1-1-0.3s-0.4-0.5-0.4-0.8c0-0.5,0.3-0.8,0.9-1.1
		c0.4-0.2,1.2-0.3,2.2-0.5l0.4,0v0.4C196.1,54.4,195.9,55,195.5,55.4L195.5,55.4z M196.4,50.8c-0.5-0.5-1.1-0.8-1.9-0.8
		c-0.4,0-0.8,0.1-1.2,0.2s-0.8,0.3-1.1,0.5v1c0.4-0.3,0.6-0.5,0.9-0.6c0.4-0.2,0.9-0.3,1.3-0.3c0.6,0,1,0.2,1.3,0.5
		c0.3,0.3,0.5,0.8,0.5,1.3l-0.6,0.1c-1.3,0.2-2.2,0.3-2.8,0.6c-0.8,0.4-1.1,0.9-1.1,1.6c0,0.6,0.2,1.1,0.7,1.4s1,0.5,1.6,0.5
		c0.6,0,1.1-0.2,1.5-0.5c0.2-0.2,0.4-0.5,0.7-0.8c0,0.5,0.1,0.8,0.1,0.9c0.1,0.2,0.4,0.3,0.8,0.3c0.1,0,0.2,0,0.4,0
		c0.2,0,0.3,0,0.4-0.1V56c-0.2,0.1-0.3,0.1-0.4,0.1c-0.2,0-0.3,0-0.3-0.2c-0.1-0.1-0.1-0.2-0.1-0.4v-3.1
		C197,51.8,196.8,51.2,196.4,50.8L196.4,50.8z"/>
	<path d="M199.2,56.2v-1.1c0.5,0.4,1.1,0.7,1.6,0.9c0.3,0.1,0.6,0.1,0.9,0.1c0.5,0,0.9-0.1,1.3-0.3c0.3-0.2,0.5-0.5,0.5-0.8
		c0-0.1,0-0.2,0-0.2c0-0.1-0.1-0.2-0.2-0.2s-0.3-0.2-0.6-0.3c-0.3-0.1-0.6-0.2-1-0.3c-0.7-0.1-1.3-0.3-1.6-0.5
		c-0.6-0.3-0.9-0.8-0.9-1.4s0.2-1,0.7-1.4c0.5-0.4,1.1-0.5,1.9-0.5c0.5,0,0.9,0,1.2,0.2s0.7,0.3,1.1,0.5v1.1
		c-0.4-0.3-0.7-0.5-1.1-0.7s-0.8-0.2-1.2-0.2s-0.8,0.1-1.1,0.3c-0.3,0.2-0.5,0.5-0.5,0.8c0,0.2,0.1,0.3,0.2,0.5
		c0.1,0.1,0.3,0.3,0.6,0.4c0.3,0.1,0.7,0.2,1.1,0.3c0.7,0.1,1.3,0.3,1.7,0.5c0.5,0.3,0.8,0.8,0.8,1.3c0,0.6-0.3,1.1-0.8,1.5
		c-0.5,0.4-1.2,0.6-2,0.6c-0.4,0-0.7,0-1-0.1C200.2,56.7,199.7,56.5,199.2,56.2L199.2,56.2z"/>
	<path d="M206.6,50.1h0.9v4.2c0,0.5,0.1,0.9,0.3,1.2c0.2,0.4,0.6,0.6,1.2,0.6c0.6,0,1.1-0.3,1.5-0.8c0.4-0.5,0.6-1.1,0.6-1.8v-3.5
		h0.9v6.7h-0.8l-0.1-1.1c-0.3,0.4-0.6,0.7-0.8,0.9c-0.4,0.3-0.9,0.4-1.4,0.4c-0.8,0-1.3-0.2-1.7-0.7c-0.4-0.4-0.6-1-0.6-1.7V50.1z"
		/>
	<path d="M217.9,50.1V51c-0.1,0-0.2-0.1-0.3-0.1c-0.1,0-0.2,0-0.4,0c-0.6,0-1.1,0.3-1.5,0.9c-0.3,0.5-0.5,1.1-0.5,1.8v3.2h-0.9v-6.7
		h0.9l0.1,1.2c0.2-0.3,0.4-0.6,0.6-0.8c0.4-0.3,0.8-0.5,1.4-0.5c0.2,0,0.4,0,0.5,0C217.7,50.1,217.8,50.1,217.9,50.1L217.9,50.1z"/>
	<path d="M221.6,51.2c0.4-0.3,0.8-0.5,1.3-0.5c0.5,0,0.9,0.1,1.2,0.4c0.3,0.3,0.6,0.7,0.6,1.3h-4C221.1,51.9,221.3,51.5,221.6,51.2
		L221.6,51.2z M225.8,52.3c-0.1-0.4-0.2-0.7-0.5-1.1c-0.2-0.3-0.5-0.6-0.9-0.8c-0.4-0.3-0.9-0.4-1.4-0.4c-0.9,0-1.7,0.3-2.3,1
		c-0.6,0.7-0.9,1.5-0.9,2.5c0,1,0.3,1.9,1,2.6c0.6,0.6,1.4,0.9,2.3,0.9c0.4,0,0.8-0.1,1.2-0.2c0.4-0.2,0.9-0.4,1.4-0.8v-1.1
		c-0.4,0.4-0.7,0.7-1,0.8c-0.5,0.3-1.1,0.5-1.6,0.5c-0.7,0-1.3-0.2-1.8-0.8c-0.4-0.5-0.7-1.2-0.7-2.2h5.1
		C225.9,52.8,225.9,52.5,225.8,52.3L225.8,52.3z"/>
	<path d="M237.2,52.6v4.3h-0.9v-4.5c0-0.5-0.1-0.8-0.4-1.1s-0.6-0.4-0.9-0.4c-0.5,0-1,0.2-1.4,0.8s-0.6,1.1-0.6,1.9v3.3h-0.9v-4.5
		c0-0.4-0.1-0.8-0.4-1.1c-0.3-0.3-0.6-0.4-1-0.4c-0.5,0-1,0.2-1.4,0.8c-0.4,0.5-0.6,1.2-0.6,1.9v3.3h-0.9v-6.7h0.9l0.1,1.1
		c0.2-0.3,0.4-0.6,0.6-0.8c0.4-0.3,0.8-0.5,1.4-0.5c0.5,0,0.9,0.1,1.3,0.3c0.4,0.3,0.7,0.6,0.8,1c0.2-0.4,0.4-0.6,0.6-0.8
		c0.4-0.4,0.9-0.5,1.5-0.5c0.7,0,1.2,0.2,1.6,0.6C237,51.1,237.2,51.7,237.2,52.6L237.2,52.6z"/>
	<path d="M241.2,51.2c0.4-0.3,0.8-0.5,1.3-0.5c0.5,0,0.9,0.1,1.2,0.4c0.3,0.3,0.6,0.7,0.6,1.3h-4C240.7,51.9,240.9,51.5,241.2,51.2
		L241.2,51.2z M245.4,52.3c-0.1-0.4-0.2-0.7-0.5-1.1c-0.2-0.3-0.5-0.6-0.9-0.8c-0.4-0.2-0.9-0.4-1.4-0.4c-0.9,0-1.7,0.3-2.3,1
		c-0.6,0.7-0.9,1.5-0.9,2.5c0,1,0.3,1.9,1,2.6c0.6,0.6,1.4,0.9,2.3,0.9c0.4,0,0.8-0.1,1.2-0.2c0.4-0.2,0.9-0.4,1.4-0.8v-1.1
		c-0.4,0.4-0.7,0.7-1,0.8c-0.5,0.3-1.1,0.5-1.6,0.5c-0.7,0-1.3-0.2-1.8-0.8c-0.4-0.5-0.7-1.2-0.7-2.2h5.1
		C245.5,52.8,245.5,52.5,245.4,52.3L245.4,52.3z"/>
	<path d="M252.6,52.3v4.4h-0.9v-4.4c0-0.5-0.1-0.9-0.4-1.2c-0.3-0.3-0.6-0.5-1.1-0.5c-0.6,0-1.1,0.3-1.5,0.8s-0.6,1.1-0.6,1.8v3.4
		h-0.9v-6.7h0.8l0.1,1.2c0.2-0.4,0.4-0.7,0.6-0.8c0.4-0.4,0.9-0.5,1.6-0.5c0.7,0,1.3,0.2,1.7,0.6C252.4,51,252.6,51.6,252.6,52.3
		L252.6,52.3z"/>
	<path d="M255.2,48.2h0.8v2h1.8v0.8H256v4.2c0,0.3,0.1,0.6,0.2,0.7s0.4,0.2,0.7,0.2c0.2,0,0.4,0,0.5-0.1s0.3-0.1,0.4-0.2v0.8
		c-0.2,0-0.3,0.1-0.5,0.1s-0.3,0-0.5,0c-0.5,0-0.9-0.1-1.2-0.3c-0.3-0.3-0.5-0.6-0.5-1.1v-4.5H254v-0.8h1.1L255.2,48.2L255.2,48.2z"
		/>
	<path d="M273.5,47.7V49c-0.4-0.4-0.9-0.6-1.3-0.8c-0.5-0.2-1-0.3-1.5-0.3c-0.7,0-1.2,0.2-1.6,0.5c-0.4,0.3-0.6,0.7-0.6,1.2
		c0,0.2,0,0.3,0.1,0.4s0.1,0.3,0.2,0.4s0.4,0.3,0.8,0.5c0.4,0.2,0.9,0.3,1.5,0.5c0.9,0.2,1.6,0.5,2.1,0.8c0.7,0.5,1.1,1.1,1.1,1.9
		c0,0.9-0.4,1.7-1.1,2.2c-0.7,0.5-1.5,0.8-2.5,0.8c-0.7,0-1.3-0.1-1.9-0.4c-0.4-0.2-0.8-0.4-1.3-0.7v-1.3c0.6,0.6,1.3,1,2,1.2
		c0.4,0.2,0.9,0.2,1.3,0.2c0.7,0,1.2-0.2,1.7-0.5c0.5-0.4,0.8-0.8,0.8-1.4c0-0.5-0.2-0.8-0.5-1.1c-0.4-0.3-1.1-0.6-2-0.8
		c-0.8-0.2-1.3-0.3-1.7-0.5c-0.2-0.1-0.5-0.3-0.9-0.6c-0.2-0.2-0.4-0.4-0.5-0.7c-0.1-0.3-0.1-0.5-0.1-0.8c0-0.8,0.3-1.4,0.9-1.9
		s1.4-0.8,2.4-0.8c0.6,0,1.2,0.1,1.8,0.3C272.7,47.3,273.1,47.5,273.5,47.7L273.5,47.7z"/>
	<path d="M276.1,50.1h1l2.3,5.5l2-5.5h1l-3,8c-0.2,0.5-0.5,0.9-0.8,1.1c-0.3,0.2-0.6,0.3-1,0.3c-0.1,0-0.3,0-0.4,0
		c-0.1,0-0.3-0.1-0.5-0.1v-0.8c0.2,0.1,0.3,0.1,0.4,0.2c0.1,0,0.2,0,0.4,0c0.3,0,0.5-0.1,0.7-0.2c0.2-0.2,0.3-0.4,0.4-0.7l0.4-1
		L276.1,50.1L276.1,50.1z"/>
	<path d="M284.1,56.2v-1.1c0.5,0.4,1,0.7,1.6,0.9c0.3,0.1,0.6,0.1,0.9,0.1c0.5,0,1-0.1,1.3-0.3c0.3-0.2,0.5-0.5,0.5-0.8
		c0-0.1,0-0.2,0-0.3c0-0.1-0.1-0.2-0.2-0.2c-0.1-0.1-0.3-0.2-0.6-0.3c-0.3-0.1-0.6-0.2-1-0.3c-0.7-0.1-1.3-0.3-1.6-0.5
		c-0.6-0.3-0.9-0.8-0.9-1.4c0-0.6,0.2-1,0.7-1.4c0.5-0.4,1.1-0.5,1.9-0.5c0.5,0,0.9,0,1.2,0.2s0.7,0.3,1.1,0.5v1.1
		c-0.4-0.3-0.7-0.5-1.1-0.7c-0.4-0.2-0.8-0.2-1.2-0.2s-0.8,0.1-1.1,0.3c-0.3,0.2-0.5,0.5-0.5,0.8c0,0.2,0.1,0.3,0.2,0.5
		c0.1,0.1,0.3,0.3,0.6,0.4c0.3,0.1,0.7,0.2,1.1,0.3c0.7,0.1,1.3,0.3,1.7,0.5c0.5,0.3,0.8,0.8,0.8,1.3c0,0.6-0.3,1-0.8,1.5
		c-0.5,0.4-1.2,0.6-2,0.6c-0.4,0-0.7,0-1-0.1C285.1,56.7,284.6,56.5,284.1,56.2L284.1,56.2z"/>
	<path d="M292.1,48.2h0.8v2h1.8v0.8H293v4.2c0,0.3,0.1,0.6,0.2,0.7c0.1,0.2,0.4,0.2,0.7,0.2c0.2,0,0.4,0,0.5-0.1
		c0.1,0,0.3-0.1,0.4-0.2v0.8c-0.2,0-0.3,0.1-0.5,0.1c-0.1,0-0.3,0-0.5,0c-0.5,0-0.9-0.1-1.2-0.3c-0.3-0.2-0.5-0.6-0.5-1.1v-4.5h-1.1
		v-0.8h1.1L292.1,48.2L292.1,48.2z"/>
	<path d="M298,51.2c0.4-0.3,0.8-0.5,1.3-0.5c0.5,0,0.9,0.1,1.2,0.4c0.3,0.3,0.6,0.7,0.6,1.2h-4C297.4,51.9,297.6,51.5,298,51.2
		L298,51.2z M302.1,52.2c-0.1-0.4-0.2-0.7-0.5-1.1c-0.2-0.3-0.5-0.6-0.9-0.8c-0.4-0.3-0.9-0.4-1.4-0.4c-0.9,0-1.7,0.3-2.3,1
		c-0.6,0.7-0.9,1.5-0.9,2.5c0,1,0.3,1.9,1,2.6c0.6,0.6,1.4,0.9,2.3,0.9c0.4,0,0.8-0.1,1.2-0.2c0.4-0.2,0.9-0.4,1.4-0.8v-1.1
		c-0.4,0.4-0.7,0.7-1,0.8c-0.5,0.3-1,0.5-1.6,0.5c-0.7,0-1.3-0.2-1.8-0.8c-0.5-0.5-0.7-1.2-0.7-2.2h5.1
		C302.2,52.8,302.2,52.5,302.1,52.2L302.1,52.2z"/>
	<path d="M313.5,52.5v4.3h-0.9v-4.5c0-0.5-0.1-0.8-0.4-1.1s-0.6-0.4-1-0.4c-0.5,0-1,0.2-1.4,0.8s-0.6,1.1-0.6,1.9v3.3h-0.9v-4.5
		c0-0.4-0.1-0.8-0.4-1.1s-0.6-0.4-1-0.4c-0.5,0-1,0.2-1.4,0.8c-0.4,0.5-0.6,1.1-0.6,1.9v3.3h-0.9v-6.7h0.9l0,1.1
		c0.2-0.3,0.4-0.6,0.6-0.8c0.4-0.3,0.8-0.5,1.4-0.5c0.5,0,0.9,0.1,1.3,0.3c0.4,0.3,0.7,0.6,0.8,1c0.2-0.4,0.4-0.6,0.6-0.8
		c0.4-0.4,0.9-0.5,1.5-0.5c0.7,0,1.2,0.2,1.6,0.6C313.3,51.1,313.5,51.7,313.5,52.5L313.5,52.5z"/>
</g>
<g>
	
		<radialGradient id="SVGID_1_" cx="24.92" cy="168.7598" r="44.57" gradientTransform="matrix(1 0 0 -1 18.79 205.4598)" gradientUnits="userSpaceOnUse">
		<stop  offset="0" style="stop-color:#009DE1"/>
		<stop  offset="1" style="stop-color:#0B318F"/>
	</radialGradient>
	<path class="st0" d="M43.7,1.1c4,0,7.3-0.2,7.3-0.5C51,0.3,47.7,0,43.7,0s-7.4,0.4-7.3,0.6C36.4,1,39.6,1.1,43.7,1.1L43.7,1.1z"/>
	
		<radialGradient id="SVGID_00000086670570421335040270000003217989346754697117_" cx="24.93" cy="168.7698" r="44.57" gradientTransform="matrix(1 0 0 -1 0 73.8898)" gradientUnits="userSpaceOnUse">
		<stop  offset="0" style="stop-color:#009DE1"/>
		<stop  offset="1" style="stop-color:#0B318F"/>
	</radialGradient>
	<path style="fill:url(#SVGID_00000086670570421335040270000003217989346754697117_);" d="M58.5,8.1c0.1-0.3-6.8-0.7-15.1-0.7
		c-8.3,0-15.1,0.4-15.1,0.7c0,0,6.8,0.7,15.1,0.7S58.5,8.1,58.5,8.1z"/>
	
		<radialGradient id="SVGID_00000012441318765850104420000001231137280795945605_" cx="24.93" cy="168.7698" r="44.55" gradientTransform="matrix(1 0 0 -1 0 73.8898)" gradientUnits="userSpaceOnUse">
		<stop  offset="0" style="stop-color:#009DE1"/>
		<stop  offset="1" style="stop-color:#0B318F"/>
	</radialGradient>
	<path style="fill:url(#SVGID_00000012441318765850104420000001231137280795945605_);" d="M43.7,72.5c-4,0-7.3,0.3-7.3,0.6
		s3.3,0.6,7.3,0.6s7.3-0.3,7.3-0.6S47.7,72.5,43.7,72.5z"/>
	
		<radialGradient id="SVGID_00000080907625406471696270000006211599356753663366_" cx="24.93" cy="168.7698" r="44.55" gradientTransform="matrix(1 0 0 -1 0 73.8898)" gradientUnits="userSpaceOnUse">
		<stop  offset="0" style="stop-color:#009DE1"/>
		<stop  offset="1" style="stop-color:#0B318F"/>
	</radialGradient>
	<path style="fill:url(#SVGID_00000080907625406471696270000006211599356753663366_);" d="M43.4,64.9c-8.3,0-15.1,0.3-15.1,0.7
		c0,0.4,6.8,0.7,15.1,0.7s15.1-0.3,15.1-0.7S51.7,64.9,43.4,64.9z"/>
	
		<radialGradient id="SVGID_00000124882714453850066350000009308781437669545601_" cx="24.91" cy="168.7798" r="44.57" gradientTransform="matrix(1 0 0 -1 0 73.8898)" gradientUnits="userSpaceOnUse">
		<stop  offset="0" style="stop-color:#009DE1"/>
		<stop  offset="1" style="stop-color:#0B318F"/>
	</radialGradient>
	<path style="fill:url(#SVGID_00000124882714453850066350000009308781437669545601_);" d="M80.1,44c0-0.3-13.8-1.1-31.7-1.2
		c0-1.4,0-2.8,0-4.3c19-0.2,39-1.2,39-1.5c0-0.5-20-1.3-39-1.4c0-1.6,0-3.1,0-4.6c17.9-0.1,31.9-1,31.7-1.3c0,0-13.8-1.1-31.7-1.2
		c0-1.9,0-3.5,0-4.9c14.5-0.1,25.7-0.7,25.7-1c0-0.3-11.1-0.9-25.7-1c0,0,0-0.1,0-0.1c-0.1-3.7,4.2-5.2,7.7-5.8
		c6.3-0.1,10.4-0.3,10.4-0.6c0-0.4-10.1-0.8-22.5-0.8s-22.6,0.5-22.6,0.8c0,0.2,3.1,0.4,8.1,0.5c9.1,1.2,8.1,5.7,8.1,5.7v0.2
		c-13.6,0.1-23.9,0.6-23.9,1c-0.1,0.3,10.2,0.8,23.9,0.9v4.9c-17.5,0.2-30.8,1.2-30.8,1.2c0,0.3,13.4,1.1,30.8,1.2v4.6
		C18.8,35.7,0.1,36.3,0,37c0,0.2,18.8,1.3,37.4,1.5v4.3C19.9,43,6.4,43.8,6.5,44c0,0,13.4,1,30.8,1.2v4.9c-13.7,0.1-23.9,0.7-23.9,1
		c0,0.3,10.2,0.8,23.9,0.9v0.6c0.2,4-7.6,5.3-12.5,5.7c-1,0-1.9,0.1-2.5,0.2c-0.8,0-1.2,0-1.2,0c0.1,0,0.2,0,0.4,0.1
		c-0.2,0-0.4,0.1-0.4,0.1c0,0.4,10.1,0.7,22.6,0.7c12.5,0,22.6-0.3,22.6-0.7c0,0-0.7,0-1.8-0.1c1.2,0,1.8-0.1,1.8-0.1
		c-18.2,0-18.1-6-18.1-6s0-0.2,0-0.5C62.8,52,74,51.4,74,51.1c0-0.2-11.1-0.8-25.7-1c0-1.2,0-2.9,0-4.8C66.2,45.1,80.1,44.2,80.1,44
		L80.1,44z"/>
</g>
</svg>
